<?xml version="1.0" encoding="UTF-8"?>
<svg width="25px" height="25px" viewBox="0 0 25 25" version="1.1" xmlns="http://www.w3.org/2000/svg" xmlns:xlink="http://www.w3.org/1999/xlink">
    <!-- Generator: Sketch 52.5 (67469) - http://www.bohemiancoding.com/sketch -->
    <title>github</title>
    <desc>Created with Sketch.</desc>
    <g id="Page-1" stroke="none" stroke-width="1" fill="none" fill-rule="evenodd">
        <g id="Componentpage" transform="translate(-1344.000000, -1962.000000)" fill="#000000">
            <g id="Footer" transform="translate(63.000000, 1955.000000)">
                <g id="github" transform="translate(1281.000000, 7.000000)">
                    <path d="M12.4984375,0 C5.596875,0 0,5.73820149 0,12.816806 C0,18.478413 3.58125,23.2815238 8.55,24.977772 C9.175,25.0958551 9.403125,24.700117 9.403125,24.3602291 C9.403125,24.055447 9.3921875,23.2496095 9.3859375,22.1804785 C5.909375,22.9544017 5.175,20.4618904 5.175,20.4618904 C4.6078125,18.9810642 3.7875,18.5869219 3.7875,18.5869219 C2.6515625,17.7922543 3.871875,17.8082115 3.871875,17.8082115 C5.1265625,17.8991674 5.7859375,19.1294659 5.7859375,19.1294659 C6.9015625,21.0874118 8.7125,20.5225276 9.425,20.1938098 C9.5375,19.3656322 9.8609375,18.800748 10.21875,18.4800088 C7.44375,18.156078 4.525,17.0566284 4.525,12.1466045 C4.525,10.7471599 5.0125,9.60303019 5.8125,8.70623675 C5.6828125,8.38230602 5.2546875,7.07860451 5.934375,5.31533625 C5.934375,5.31533625 6.984375,4.97066119 9.371875,6.62861207 C10.36875,6.34457429 11.4375,6.20255539 12.5015625,6.19776824 C13.5625,6.20415111 14.6328125,6.34457429 15.63125,6.63020779 C18.0171875,4.97225691 19.065625,5.31693197 19.065625,5.31693197 C19.746875,7.08179595 19.31875,8.38390173 19.190625,8.70783246 C19.9921875,9.60462591 20.475,10.7487556 20.475,12.1482002 C20.475,17.0709899 17.553125,18.1544823 14.76875,18.4720302 C15.2171875,18.8677682 15.6171875,19.64967 15.6171875,20.8448626 C15.6171875,22.5586636 15.6015625,23.9405553 15.6015625,24.3602291 C15.6015625,24.7033085 15.8265625,25.1022379 16.4609375,24.9761762 C21.421875,23.2783324 25,18.4768173 25,12.816806 C25,5.73820149 19.403125,0 12.4984375,0 Z" id="Path"></path>
                </g>
            </g>
        </g>
    </g>
</svg>